<svg xmlns="http://www.w3.org/2000/svg" viewBox="0 0 200 60" width="200" height="60" aria-label="KKday"><title>KKday</title><g fill="#1AB6C1"><path d="M18 10v40h8V35.4l3.3-3.6L39.9 50h9.6L34.9 27.3 47.7 10h-9.2L26 25.8V10z"></path><path d="M56 10v40h8V35.4l3.3-3.6L77.9 50h9.6L72.9 27.3 85.7 10h-9.2L64 25.8V10z"></path><path d="M92 50h9.6c9.1 0 15.8-7.1 15.8-20S110.7 10 101.6 10H92v40zm8-7.6V17.6h1.2c4.8 0 7.8 3.8 7.8 12.4s-3 12.4-7.8 12.4H100z"></path><path d="M135.7 10L123 50h8.5l2-7h11l2 7h8.7L142.5 10h-6.8zm-.2 25.6l3.6-12.5 3.6 12.5h-7.2z"></path><path d="M161 10l10.3 24.6V50h8V34.6L189.6 10h-9l-5.6 15.1L169.4 10z"></path></g></svg>