<svg width="24" height="24" viewBox="0 0 24 24" fill="none" xmlns="http://www.w3.org/2000/svg">
<path d="M11.25 3.5L11.25 14.1893L7.53033 10.4697C7.23744 10.1768 6.76256 10.1768 6.46967 10.4697C6.17678 10.7626 6.17678 11.2374 6.46967 11.5303L11.4697 16.5303C11.7626 16.8232 12.2374 16.8232 12.5303 16.5303L17.5303 11.5303C17.8232 11.2374 17.8232 10.7626 17.5303 10.4697C17.2374 10.1768 16.7626 10.1768 16.4697 10.4697L12.75 14.1893L12.75 3.5C12.75 3.08579 12.4142 2.75 12 2.75C11.5858 2.75 11.25 3.08579 11.25 3.5Z" fill="black"/>
<path d="M3.75 19.5C3.33579 19.5 3 19.8358 3 20.25C3 20.6642 3.33579 21 3.75 21H20.25C20.6642 21 21 20.6642 21 20.25C21 19.8358 20.6642 19.5 20.25 19.5H3.75Z" fill="black"/>
</svg>
