<svg width="24" height="24" viewBox="0 0 24 24" fill="none" xmlns="http://www.w3.org/2000/svg">
<path fill-rule="evenodd" clip-rule="evenodd" d="M12 2C17.5192 2 22 6.48084 22 12C22 17.5192 17.5192 22 12 22C6.48084 22 2 17.5192 2 12C2 6.48084 6.48084 2 12 2Z" fill="#FFB400"/>
<path fill-rule="evenodd" clip-rule="evenodd" d="M12.0072 4.17687C11.8662 4.17687 11.7519 4.06265 11.7519 3.92177C11.7519 3.78088 11.8662 3.66666 12.0072 3.66666C12.3013 3.66666 12.5937 3.68191 12.8834 3.71221C13.0236 3.7269 13.1254 3.85235 13.1108 3.99249C13.0961 4.1326 12.9705 4.2343 12.8303 4.21965C12.5582 4.1912 12.2836 4.17687 12.0072 4.17687ZM13.8083 4.38519C13.671 4.35287 13.586 4.2155 13.6184 4.07834C13.6507 3.94122 13.7882 3.85627 13.9254 3.88859C14.2111 3.95591 14.4925 4.03819 14.7685 4.13506C14.9016 4.18171 14.9715 4.32733 14.9248 4.46026C14.8781 4.59322 14.7323 4.66313 14.5993 4.61644C14.3403 4.52555 14.0763 4.44834 13.8083 4.38519ZM15.5124 5.00382C15.3863 4.94059 15.3355 4.78729 15.3987 4.66137C15.462 4.53545 15.6155 4.48464 15.7415 4.54783C16.0032 4.67912 16.2578 4.82413 16.5042 4.98212C16.6228 5.05826 16.6573 5.21607 16.5811 5.33463C16.5049 5.45319 16.347 5.48761 16.2283 5.41151C15.997 5.26316 15.758 5.12703 15.5124 5.00382ZM17.0398 6.00858C16.9318 5.91794 16.9178 5.75703 17.0085 5.64918C17.0993 5.54132 17.2603 5.52735 17.3683 5.61799C17.5924 5.80618 17.8066 6.00602 18.0098 6.21658C18.1078 6.31796 18.1048 6.47947 18.0034 6.57726C17.9019 6.67509 17.7402 6.67217 17.6423 6.57079C17.4514 6.373 17.2503 6.18535 17.0398 6.00858ZM18.2758 7.31407C18.1912 7.20135 18.2141 7.04143 18.3269 6.95694C18.4397 6.87241 18.5998 6.89528 18.6843 7.008C18.86 7.2421 19.0233 7.48526 19.1734 7.73645C19.2457 7.85743 19.2062 8.01404 19.0851 8.08626C18.964 8.15848 18.8073 8.11898 18.7349 7.99804C18.594 7.7622 18.4407 7.5339 18.2758 7.31407ZM19.1929 8.88973C19.1367 8.76051 19.196 8.61023 19.3254 8.55412C19.4547 8.498 19.6051 8.55724 19.6613 8.68647C19.7778 8.9547 19.8802 9.22908 19.9679 9.50866C20.0101 9.64311 19.9352 9.78624 19.8006 9.82838C19.6661 9.87048 19.5228 9.79566 19.4806 9.66121C19.3984 9.39888 19.3023 9.14143 19.1929 8.88973ZM19.7196 10.6433C19.6952 10.5045 19.7881 10.3723 19.927 10.348C20.0659 10.3237 20.1982 10.4165 20.2226 10.5553C20.2729 10.8425 20.3082 11.133 20.3282 11.4261C20.3378 11.5666 20.2316 11.6884 20.0909 11.6979C19.9502 11.7075 19.8284 11.6013 19.8188 11.4608C19.8 11.1856 19.7668 10.9129 19.7196 10.6433ZM19.823 12.4717C19.8314 12.3311 19.9523 12.2238 20.0931 12.2322C20.2339 12.2406 20.3412 12.3614 20.3328 12.502C20.3153 12.7952 20.2826 13.0859 20.2348 13.3734C20.2117 13.5124 20.0802 13.6064 19.941 13.5833C19.8019 13.5602 19.7079 13.4288 19.731 13.2898C19.7759 13.0199 19.8066 12.747 19.823 12.4717ZM19.5053 14.259C19.546 14.1241 19.6884 14.0477 19.8234 14.0883C19.9584 14.129 20.0349 14.2713 19.9942 14.4062C19.9095 14.6869 19.81 14.9624 19.6963 15.2319C19.6416 15.3617 19.4918 15.4226 19.3619 15.3679C19.2319 15.3131 19.171 15.1635 19.2258 15.0337C19.3325 14.7808 19.4258 14.5222 19.5053 14.259ZM18.7832 15.9204C18.854 15.7986 19.0103 15.7572 19.1322 15.828C19.2542 15.8987 19.2956 16.0548 19.2248 16.1767C19.0777 16.4296 18.9175 16.6747 18.7447 16.9108C18.6615 17.0246 18.5017 17.0494 18.3879 16.9662C18.274 16.8831 18.2492 16.7235 18.3324 16.6097C18.4947 16.388 18.6452 16.1579 18.7832 15.9204ZM17.6838 17.3861C17.7809 17.284 17.9425 17.2798 18.0447 17.3769C18.147 17.4739 18.1511 17.6354 18.054 17.7375C17.8523 17.9496 17.6397 18.1511 17.417 18.341C17.3097 18.4324 17.1485 18.4197 17.057 18.3125C16.9655 18.2054 16.9782 18.0443 17.0855 17.9529C17.2946 17.7745 17.4944 17.5853 17.6838 17.3861ZM16.3084 18.5367C16.4262 18.4592 16.5845 18.4917 16.6621 18.6093C16.7397 18.7269 16.7072 18.8852 16.5894 18.9627C16.345 19.1237 16.0922 19.2718 15.832 19.4063C15.7068 19.4711 15.5527 19.4221 15.488 19.297C15.4231 19.1719 15.4721 19.0179 15.5974 18.9532C15.8415 18.8269 16.0789 18.6879 16.3084 18.5367ZM14.6767 19.3562C14.8092 19.3081 14.9557 19.3765 15.0038 19.5089C15.0519 19.6414 14.9835 19.7877 14.851 19.8358C14.576 19.9356 14.2956 20.0208 14.0108 20.0911C13.8739 20.1249 13.7355 20.0414 13.7017 19.9046C13.6679 19.7678 13.7515 19.6296 13.8883 19.5958C14.1556 19.5298 14.4187 19.4498 14.6767 19.3562ZM12.8903 19.7741C13.0304 19.7583 13.1567 19.8591 13.1725 19.9991C13.1883 20.1391 13.0874 20.2654 12.9473 20.2811C12.6577 20.3136 12.3654 20.3311 12.0712 20.3333C11.9302 20.3344 11.815 20.221 11.8139 20.0802C11.8128 19.9393 11.9263 19.8242 12.0673 19.8231C12.3437 19.821 12.6183 19.8046 12.8903 19.7741ZM11.0642 19.7671C11.2043 19.784 11.3041 19.911 11.2873 20.0509C11.2705 20.1907 11.1433 20.2905 11.0033 20.2737C10.7115 20.2386 10.4228 20.1883 10.138 20.1231C10.0006 20.0916 9.91471 19.9547 9.94624 19.8174C9.97777 19.6801 10.1147 19.5943 10.2522 19.6258C10.5194 19.687 10.7904 19.7342 11.0642 19.7671ZM9.29277 19.3398C9.42503 19.3887 9.49254 19.5354 9.4436 19.6676C9.39467 19.7997 9.24779 19.8672 9.11553 19.8182C8.84063 19.7166 8.5715 19.6005 8.30919 19.4705C8.18285 19.4079 8.13124 19.2548 8.19392 19.1286C8.25656 19.0024 8.40974 18.9508 8.53608 19.0134C8.78226 19.1354 9.03481 19.2444 9.29277 19.3398ZM7.67902 18.5188C7.7964 18.5968 7.82829 18.7552 7.75021 18.8725C7.67208 18.9898 7.5136 19.0217 7.39619 18.9437C7.15236 18.7816 6.91717 18.6068 6.6916 18.4201C6.58301 18.3303 6.56792 18.1694 6.65786 18.0609C6.74783 17.9524 6.90877 17.9373 7.01736 18.0272C7.2292 18.2025 7.45003 18.3667 7.67902 18.5188ZM6.27769 17.33C6.37382 17.4331 6.36809 17.5946 6.26492 17.6906C6.16174 17.7866 6.0002 17.7809 5.90407 17.6778C5.70447 17.4637 5.5162 17.2394 5.3401 17.0057C5.25529 16.8931 5.27785 16.7332 5.3905 16.6484C5.50317 16.5637 5.66323 16.5862 5.74804 16.6988C5.91343 16.9183 6.09024 17.129 6.27769 17.33ZM5.21526 15.8929C5.28559 16.0151 5.24352 16.171 5.12127 16.2413C4.99905 16.3116 4.84295 16.2695 4.77266 16.1474C4.6266 15.8938 4.49399 15.6326 4.37547 15.3648C4.31842 15.236 4.37671 15.0853 4.50569 15.0283C4.63464 14.9714 4.78544 15.0296 4.84245 15.1584C4.95371 15.4097 5.07817 15.6549 5.21526 15.8929ZM4.49558 14.2136C4.53545 14.3487 4.45814 14.4905 4.3229 14.5304C4.18762 14.5702 4.04565 14.493 4.00579 14.3579C3.92311 14.0777 3.85521 13.7929 3.80246 13.5043C3.77712 13.3657 3.86901 13.2328 4.00775 13.2075C4.14648 13.1822 4.27944 13.274 4.30478 13.4126C4.35429 13.6834 4.418 13.9507 4.49558 14.2136ZM4.18753 12.4038C4.19472 12.5445 4.08634 12.6644 3.94551 12.6716C3.80472 12.6787 3.68471 12.5705 3.67755 12.4298C3.6704 12.2895 3.66677 12.1488 3.66663 12.0075C3.66663 11.8491 3.67068 11.6975 3.67887 11.5456C3.68645 11.4049 3.80675 11.297 3.94754 11.3046C4.08837 11.3122 4.19635 11.4324 4.18877 11.573C4.18109 11.7158 4.17728 11.8582 4.17728 12.0073C4.17739 12.1399 4.18084 12.2721 4.18753 12.4038ZM4.30422 10.5906C4.27892 10.7293 4.14599 10.8211 4.00725 10.7959C3.86852 10.7706 3.77656 10.6378 3.80183 10.4992C3.8545 10.2105 3.9223 9.9256 4.00487 9.64535C4.0447 9.51022 4.18667 9.43291 4.32191 9.4727C4.45719 9.51249 4.53456 9.65431 4.49474 9.78947C4.41722 10.0524 4.35362 10.3198 4.30422 10.5906ZM4.84209 8.84277C4.78504 8.9716 4.63428 9.02988 4.5053 8.97292C4.37635 8.91591 4.31802 8.76528 4.37504 8.63641C4.49352 8.36871 4.62606 8.10759 4.77201 7.85398C4.84234 7.73187 4.9984 7.6898 5.12066 7.76003C5.24287 7.8303 5.28498 7.98623 5.21469 8.10838C5.07766 8.34642 4.95327 8.5915 4.84209 8.84277ZM5.75939 7.28647C5.6743 7.39884 5.51418 7.421 5.40171 7.33601C5.28928 7.25098 5.26707 7.091 5.35217 6.97863C5.52884 6.74532 5.71768 6.52132 5.91784 6.30771C6.01422 6.20484 6.17577 6.19951 6.27873 6.2958C6.38166 6.3921 6.387 6.55351 6.29065 6.65638C6.10266 6.85701 5.92532 7.06735 5.75939 7.28647ZM7.01867 5.97192C6.91004 6.06178 6.7491 6.04663 6.65917 5.93814C6.56923 5.82961 6.58436 5.66881 6.69298 5.57895C6.91851 5.39236 7.1537 5.21769 7.39749 5.05572C7.5149 4.9777 7.67339 5.00959 7.75147 5.12691C7.82952 5.24422 7.79764 5.40257 7.68022 5.48059C7.4513 5.63268 7.23047 5.79668 7.01867 5.97192ZM8.53117 4.98925C8.40486 5.05194 8.25164 5.00048 8.1889 4.87432C8.12615 4.74811 8.17765 4.59503 8.30396 4.53233C8.56612 4.40218 8.83515 4.2859 9.10998 4.18406C9.24216 4.13506 9.38912 4.20241 9.43816 4.33451C9.4872 4.46662 9.41976 4.61341 9.28754 4.66241C9.02969 4.758 8.77721 4.8671 8.53117 4.98925ZM10.254 4.37402C10.1166 4.40549 9.97964 4.31965 9.94814 4.18232C9.91668 4.04498 10.0026 3.90818 10.14 3.87671C10.4247 3.81153 10.7133 3.76132 11.005 3.72633C11.1451 3.70954 11.2722 3.80936 11.289 3.94922C11.3058 4.08911 11.2059 4.21613 11.0659 4.23292C10.7921 4.26574 10.5212 4.31289 10.254 4.37402Z" fill="white"/>
<path fill-rule="evenodd" clip-rule="evenodd" d="M14.7714 15.156C14.8848 15.1482 14.9979 15.1319 15.1096 15.1071V15.1112C15.1097 15.1112 15.1099 15.1111 15.11 15.1111V16.3839C15.0863 16.3883 15.0626 16.3926 15.0391 16.3966C14.8581 16.4325 14.6714 16.4516 14.4802 16.4516C14.3791 16.4516 14.2786 16.4465 14.1791 16.4366C13.5706 16.3849 13.0505 16.1583 12.6106 15.8254C12.0615 15.4169 11.6474 14.8342 11.4761 14.1552C11.4609 14.0988 11.4472 14.042 11.4351 13.985L11.3078 14.1179L10.8577 14.6108V16.4508H9.60669V7.50943H10.8577V12.6436L13.3595 9.96735H13.3599L13.3626 9.96441L15.0998 9.96439L15.0971 9.96735H15.0981L13.4864 11.7342C13.4864 11.7342 13.1216 12.1332 12.8312 12.5771C12.7141 12.8007 12.6544 13.0284 12.6627 13.2997C12.6627 13.4687 12.6856 13.6387 12.731 13.803C12.7866 13.9923 12.8707 14.1726 12.9809 14.3358C13.0945 14.504 13.2307 14.646 13.3831 14.7622C13.5841 14.9126 13.8404 15.0441 14.1511 15.1121C14.2259 15.1283 14.3018 15.1406 14.3783 15.1488C14.502 15.162 14.633 15.1651 14.7714 15.156Z" fill="white"/>
</svg>
