<svg width="24" height="24" viewBox="0 0 24 24" fill="none" xmlns="http://www.w3.org/2000/svg">
<path d="M18.7839 3.87061L18.9685 3.88232C19.3956 3.93535 19.783 4.16999 20.0271 4.53174L23.3601 9.47412C23.7634 10.072 23.6844 10.8723 23.1716 11.3794L13.1716 21.2632C12.5873 21.8407 11.6466 21.8407 11.0622 21.2632L1.06224 11.3794C0.549478 10.8723 0.470496 10.072 0.87376 9.47412L4.20677 4.53174L4.32005 4.38428C4.6028 4.06022 5.01391 3.8707 5.44993 3.87061H18.7839ZM5.44993 5.37061L2.11692 10.313L12.1169 20.1968L22.1169 10.313L18.7839 5.37061H5.44993Z" fill="white"/>
<path fill-rule="evenodd" clip-rule="evenodd" d="M18.7823 5.37061L22.1156 10.3128H15.449L18.7823 5.37061Z" fill="#5EAFFF"/>
<path fill-rule="evenodd" clip-rule="evenodd" d="M12.1169 20.1968L22.1169 10.313L15.4503 10.3122L12.1169 20.1968Z" fill="#0080FF"/>
<path fill-rule="evenodd" clip-rule="evenodd" d="M12.1172 5.37061L15.4503 10.3122L8.78392 10.3128L12.1172 5.37061Z" fill="#F3F8FF"/>
<path fill-rule="evenodd" clip-rule="evenodd" d="M12.1169 20.1968L15.4503 10.3122L8.78392 10.3128L12.1169 20.1968Z" fill="#5EAFFF"/>
<path fill-rule="evenodd" clip-rule="evenodd" d="M8.78228 10.3129L12.1156 5.3707L5.44993 5.37061L8.78228 10.3129Z" fill="#91C8FF"/>
<path fill-rule="evenodd" clip-rule="evenodd" d="M15.4503 10.3122L18.7839 5.37061H12.1172L15.4503 10.3122Z" fill="#91C8FF"/>
<path fill-rule="evenodd" clip-rule="evenodd" d="M5.44993 5.37061L8.78392 10.3128L2.11692 10.313L5.44993 5.37061Z" fill="#5EAFFF"/>
<path fill-rule="evenodd" clip-rule="evenodd" d="M12.1169 20.1968L8.78392 10.3128L2.11692 10.313L12.1169 20.1968Z" fill="#0080FF"/>
</svg>
