<svg width="24" height="24" viewBox="0 0 24 24" fill="none" xmlns="http://www.w3.org/2000/svg">
<path d="M16.5 20.9943C14.7268 20.9957 12.9707 20.6474 11.3322 19.9694C9.69373 19.2914 8.20498 18.2971 6.95113 17.0432C5.69728 15.7894 4.70292 14.3006 4.02495 12.6621C3.34698 11.0236 2.99869 9.26756 3 7.49435C2.9996 6.21598 3.46564 4.98139 4.3107 4.02218C5.15577 3.06297 6.32178 2.44505 7.59 2.28434C7.91241 2.24526 8.2388 2.31187 8.52011 2.47416C8.80142 2.63646 9.02245 2.88568 9.15 3.18435L11.03 7.57435C11.1295 7.80409 11.1707 8.05484 11.15 8.30435C11.1246 8.54986 11.0425 8.78609 10.91 8.99435L9.35001 11.3744C10.053 12.8113 11.2188 13.97 12.66 14.6643L15 13.0944C15.2084 12.959 15.4465 12.8765 15.6939 12.8538C15.9413 12.8312 16.1905 12.8691 16.42 12.9643L20.81 14.8444C21.1067 14.9749 21.355 15.1953 21.52 15.4743C21.6817 15.7559 21.7483 16.082 21.71 16.4044C21.5493 17.6726 20.9314 18.8386 19.9722 19.6836C19.013 20.5287 17.7784 20.9948 16.5 20.9943ZM7.77001 3.77435C6.8668 3.89306 6.03741 4.33565 5.43596 5.01986C4.83452 5.70407 4.50193 6.58337 4.5 7.49435C4.5 10.6769 5.76429 13.7292 8.01473 15.9796C10.2652 18.2301 13.3174 19.4943 16.5 19.4943C17.4125 19.4921 18.293 19.1581 18.9775 18.5546C19.6619 17.9512 20.1035 17.1194 20.22 16.2143L15.83 14.3444L13.48 15.9044C13.2656 16.0486 13.0173 16.1346 12.7596 16.1539C12.5018 16.1732 12.2435 16.1251 12.01 16.0144C10.2665 15.1664 8.85799 13.7579 8.01 12.0144C7.89949 11.777 7.85131 11.5155 7.87 11.2543C7.88863 11.0012 7.97122 10.7569 8.11 10.5444L9.65 8.13435L7.77001 3.77435Z" fill="black"/>
</svg>
