<svg width="24" height="24" viewBox="0 0 24 24" fill="none" xmlns="http://www.w3.org/2000/svg">
<path fill-rule="evenodd" clip-rule="evenodd" d="M10.875 3.75C6.93997 3.75 3.75 6.93997 3.75 10.875C3.75 14.81 6.93997 18 10.875 18C14.81 18 18 14.81 18 10.875C18 6.93997 14.81 3.75 10.875 3.75ZM2.25 10.875C2.25 6.11154 6.11154 2.25 10.875 2.25C15.6385 2.25 19.5 6.11154 19.5 10.875C19.5 15.6385 15.6385 19.5 10.875 19.5C6.11154 19.5 2.25 15.6385 2.25 10.875Z" fill="black"/>
<path fill-rule="evenodd" clip-rule="evenodd" d="M15.9128 15.9135C16.2057 15.6206 16.6806 15.6206 16.9735 15.9135L21.5298 20.4698C21.8227 20.7627 21.8227 21.2375 21.5298 21.5304C21.2369 21.8233 20.762 21.8233 20.4691 21.5304L15.9128 16.9741C15.6199 16.6812 15.6199 16.2064 15.9128 15.9135Z" fill="black"/>
</svg>
