<svg width="24" height="24" viewBox="0 0 24 24" fill="none" xmlns="http://www.w3.org/2000/svg">
<path d="M7.5 21.75C8.32843 21.75 9 21.0784 9 20.25C9 19.4216 8.32843 18.75 7.5 18.75C6.67157 18.75 6 19.4216 6 20.25C6 21.0784 6.67157 21.75 7.5 21.75Z" fill="black"/>
<path d="M17.25 21.75C18.0784 21.75 18.75 21.0784 18.75 20.25C18.75 19.4216 18.0784 18.75 17.25 18.75C16.4216 18.75 15.75 19.4216 15.75 20.25C15.75 21.0784 16.4216 21.75 17.25 21.75Z" fill="black"/>
<path fill-rule="evenodd" clip-rule="evenodd" d="M0 3C0 2.58579 0.335786 2.25 0.75 2.25H2.32713C2.6531 2.25 2.97019 2.35618 3.23042 2.55248C3.49066 2.74877 3.67987 3.02449 3.76942 3.33792L4.53001 6H20.7857C21.0211 6 21.2428 6.11047 21.3845 6.29835C21.5262 6.48624 21.5715 6.72975 21.5069 6.95604L19.032 15.6181C18.8977 16.0883 18.6138 16.5018 18.2235 16.7963C17.8331 17.0907 17.3575 17.25 16.8685 17.25H7.88145C7.3925 17.25 6.91686 17.0907 6.52651 16.7963C6.13616 16.5018 5.85235 16.0883 5.71802 15.6181L3.24786 6.97254C3.24455 6.96188 3.24147 6.95112 3.23863 6.94025L2.32713 3.75H0.75C0.335786 3.75 0 3.41421 0 3ZM4.95858 7.5L7.16031 15.206C7.20508 15.3628 7.29969 15.5006 7.42981 15.5988C7.55992 15.6969 7.71847 15.75 7.88145 15.75H16.8685C17.0315 15.75 17.1901 15.6969 17.3202 15.5988C17.4503 15.5006 17.5449 15.3628 17.5897 15.206L19.7914 7.5H4.95858Z" fill="black"/>
</svg>
