<svg width="24" height="24" viewBox="0 0 24 24" fill="none" xmlns="http://www.w3.org/2000/svg">
<path fill-rule="evenodd" clip-rule="evenodd" d="M10.875 2C5.97347 2 2 5.97347 2 10.875C2 15.7765 5.97347 19.75 10.875 19.75C12.9653 19.75 14.8868 19.0274 16.4034 17.8183L20.2923 21.7073C20.6829 22.0978 21.316 22.0978 21.7066 21.7073C22.0971 21.3167 22.0971 20.6836 21.7066 20.293L17.8176 16.4041C19.0271 14.8875 19.75 12.9657 19.75 10.875C19.75 5.97347 15.7765 2 10.875 2ZM4 10.875C4 7.07804 7.07804 4 10.875 4C14.672 4 17.75 7.07804 17.75 10.875C17.75 14.672 14.672 17.75 10.875 17.75C7.07804 17.75 4 14.672 4 10.875Z" fill="black"/>
</svg>
