<svg width="24" height="24" viewBox="0 0 24 24" fill="none" xmlns="http://www.w3.org/2000/svg">
<path d="M11.9374 10.7557C8.8398 10.7557 6.31484 13.2807 6.31484 16.3783C6.31484 19.4757 8.8398 22.0008 11.9374 22.0008C15.035 22.0008 17.5599 19.4757 17.5599 16.3783C17.5599 13.2807 15.035 10.7557 11.9374 10.7557Z" fill="#FEE269"/>
<path d="M11.9462 11.7772C9.41103 11.7772 7.34597 13.8421 7.34597 16.3775C7.34597 18.9127 9.41103 20.9778 11.9462 20.9778C14.4814 20.9778 16.5465 18.9127 16.5465 16.3775C16.5465 13.8421 14.4814 11.7772 11.9462 11.7772Z" fill="#FCB90B"/>
<path d="M9.90864 1.99915H4.11414C3.92227 1.99915 3.80192 2.20634 3.89698 2.37301L7.54231 8.76417C8.01185 9.5874 8.88679 10.0956 9.83451 10.0956H13.9684C14.092 10.0956 14.1716 9.96482 14.115 9.85505L10.1308 2.1345C10.0879 2.05137 10.0022 1.99915 9.90864 1.99915Z" fill="#4094D9"/>
<path d="M14.3296 1.99915H19.9074C20.0943 1.99915 20.2157 2.1956 20.1303 2.36189C19.7376 3.12748 18.8087 4.93539 18.1872 6.12235C17.7586 6.94104 17.2208 7.93751 16.7911 8.72773C16.3316 9.57264 15.4458 10.0956 14.484 10.0956H9.97082L14.1078 2.13388C14.1508 2.05109 14.2364 1.99915 14.3296 1.99915Z" fill="#64B3F4"/>
<path d="M18.3091 1.99915H16.285L12.0119 10.0956H14.036L18.3091 1.99915Z" fill="#A0D0F8"/>
<path fill-rule="evenodd" clip-rule="evenodd" d="M13.6689 18.0953C13.7355 18.0906 13.8019 18.0809 13.8675 18.0664L13.8678 18.8293C13.8537 18.832 13.8397 18.8345 13.8257 18.8369C13.7175 18.8584 13.6058 18.8698 13.4914 18.8698C13.4309 18.8698 13.3707 18.8668 13.3111 18.8608C12.9477 18.8299 12.637 18.6945 12.3742 18.4957C12.0462 18.2516 11.7987 17.9036 11.6963 17.498C11.6872 17.4641 11.6789 17.43 11.6716 17.3958L11.5958 17.4749L11.3266 17.7698V18.8693H10.579V13.526H11.3266V16.5941L12.8217 14.9948L12.8235 14.9931L13.8617 14.9931L12.8975 16.0507C12.8975 16.0507 12.6794 16.2892 12.5059 16.5545C12.436 16.6881 12.4003 16.8242 12.4053 16.9862C12.4053 17.087 12.4189 17.1884 12.4459 17.2865C12.4792 17.3998 12.5295 17.5077 12.5954 17.6054C12.6633 17.706 12.7448 17.7909 12.836 17.8604C12.9568 17.9507 13.1109 18.0296 13.2979 18.07C13.3398 18.079 13.3822 18.0859 13.425 18.0907C13.5016 18.0991 13.5829 18.1012 13.6689 18.0953Z" fill="#FFFBC3"/>
</svg>
