<svg width="24" height="24" viewBox="0 0 24 24" fill="none" xmlns="http://www.w3.org/2000/svg">
<path d="M16.5022 3.00001C15.6291 2.99851 14.7677 3.20077 13.9865 3.59072C13.2052 3.98066 12.5258 4.54752 12.0022 5.24621C11.293 4.30266 10.3051 3.606 9.17823 3.25482C8.05134 2.90365 6.84256 2.91573 5.72291 3.28936C4.60327 3.663 3.62948 4.37926 2.93932 5.3368C2.24916 6.29434 1.8776 7.44467 1.8772 8.62501C1.8772 15.3621 11.2373 20.6813 11.6357 20.9044C11.7477 20.9671 11.8739 21 12.0022 21C12.1305 21 12.2567 20.9671 12.3687 20.9044C14.0902 19.8961 15.7059 18.7173 17.1914 17.3856C20.4665 14.438 22.1272 11.4905 22.1272 8.62501C22.1255 7.13368 21.5323 5.70393 20.4778 4.6494C19.4233 3.59487 17.9935 3.0017 16.5022 3.00001V3.00001Z" fill="#212121" fill-opacity="0.3"/>
<path d="M11.995 20.9998C11.8647 21.0021 11.7364 20.9674 11.625 20.8997C11.225 20.6797 1.86499 15.3599 1.86499 8.62985C1.86345 7.3272 2.31609 6.06469 3.14499 5.05978C3.96899 4.05169 5.11744 3.36102 6.39416 3.10568C7.67088 2.85034 8.99665 3.04613 10.145 3.65976C10.8707 4.05196 11.5047 4.59402 12.005 5.24985C12.5151 4.56705 13.1741 4.00939 13.932 3.61935C14.6898 3.22932 15.5265 3.01706 16.3787 2.99875C17.2308 2.98043 18.0759 3.15653 18.8498 3.51364C19.6237 3.87075 20.306 4.39954 20.845 5.05978C21.6739 6.06469 22.1265 7.3272 22.125 8.62985C22.125 15.3599 12.765 20.6297 12.365 20.8997C12.2538 20.9679 12.1254 21.0027 11.995 20.9998ZM7.49499 4.46982C7.21959 4.46715 6.94469 4.53397 6.67499 4.58981C5.74811 4.77562 4.91331 5.27447 4.31064 6.00278C3.70797 6.73108 3.37409 7.64453 3.36499 8.58981C3.36499 13.7598 10.305 18.3098 11.995 19.3398C13.675 18.3398 20.615 13.7598 20.615 8.58981C20.6202 7.6339 20.2928 6.70597 19.6889 5.96493C19.085 5.2239 18.2423 4.71585 17.305 4.52792C16.3677 4.34 15.3943 4.48382 14.5514 4.93478C13.7086 5.38574 13.0487 6.11584 12.685 6.99985C12.6173 7.12516 12.5169 7.22975 12.3946 7.3027C12.2722 7.37565 12.1324 7.41415 11.99 7.41415C11.8476 7.41415 11.7078 7.37565 11.5854 7.3027C11.4631 7.22975 11.3627 7.12516 11.295 6.99985C10.9871 6.24657 10.4605 5.60281 9.78312 5.15182C9.10575 4.70084 8.30873 4.46331 7.49499 4.46982Z" fill="white"/>
</svg>
